<?xml version="1.0" encoding="UTF-8"?>
<svg width="105px" height="24px" viewBox="0 0 105 24" version="1.1" xmlns="http://www.w3.org/2000/svg" xmlns:xlink="http://www.w3.org/1999/xlink">
    <!-- Generator: Sketch 49.3 (51167) - http://www.bohemiancoding.com/sketch -->
    <title>logo / white</title>
    <desc>Created with Sketch.</desc>
    <defs></defs>
    <g id="Artwork" stroke="none" stroke-width="1" fill="none" fill-rule="evenodd">
        <g id="Sticky-Menu" transform="translate(-103.000000, -32.000000)" fill="#FF6369">
            <g id="logo-/-red" transform="translate(103.000000, 32.000000)">
                <path d="M64.5161125,0.239064706 C63.8133125,0.239064706 63.1106875,0.614241176 62.7631375,1.36459412 L51.8237125,23.5413 L77.2085125,23.5413 L66.2690875,1.36459412 C65.9215375,0.614241176 65.2189125,0.239064706 64.5161125,0.239064706 M64.5161125,5.45818235 L71.7562125,20.1354176 L57.2760125,20.1354176 L64.5161125,5.45818235" id="Fill-1"></path>
                <path d="M45.418975,11.9516118 C45.449775,7.24108235 41.700925,3.52267059 37.15285,3.52267059 C32.57415,3.52267059 28.8253,7.24108235 28.855925,11.9516118 C28.855925,16.6307294 32.57415,20.5040824 37.15285,20.5040824 C41.731725,20.5040824 45.418975,16.6616118 45.418975,11.9516118 M25.4758,11.9516118 C25.4758,5.35090588 30.699725,0.176435294 37.15285,0.176435294 C43.48295,0.176435294 48.7991,5.28878824 48.7991,11.9516118 C48.7991,18.5517882 43.60615,23.8510235 37.15285,23.8510235 C30.699725,23.8510235 25.4758,18.5209059 25.4758,11.9516118" id="Fill-3"></path>
                <path d="M105.00007,1.97361176 L105.00007,23.5407882 L101.619945,23.5407882 L101.619945,6.71449412 L93.90647,17.9943176 L86.19352,6.68343529 L86.19352,23.5407882 L82.813395,23.5407882 L82.813395,1.97361176 C82.813395,1.01308235 83.58147,0.238552941 84.564795,0.238552941 C85.11797,0.238552941 85.578745,0.485788235 85.917195,0.889023529 L93.90647,12.4471412 L101.926895,0.889023529 C102.23437,0.485788235 102.72577,0.238552941 103.278945,0.238552941 C104.23147,0.238552941 105.00007,1.01308235 105.00007,1.97361176" id="Fill-6"></path>
                <path d="M3.3801775,4.01887059 L11.0931275,4.01887059 C13.3672525,4.01887059 15.2110525,5.97116471 15.2110525,8.26369412 C15.2110525,10.5258706 13.4288525,12.3232235 11.0931275,12.3232235 L3.3801775,12.3232235 L3.3801775,4.01887059 Z M19.2617775,23.5407529 L13.4390025,15.1661647 C16.4497025,14.2501059 18.5911775,11.6233412 18.5911775,8.26369412 C18.5911775,4.08098824 15.2416775,0.609988235 11.0931275,0.609988235 L1.8128775,0.609988235 C0.8295525,0.609988235 5.25e-05,1.4154 5.25e-05,2.40698824 L5.25e-05,23.5407529 L3.3801775,23.5407529 L3.3801775,15.5150471 L9.8998025,15.5150471 L15.4207025,23.5407529 L19.2617775,23.5407529 Z" id="Fill-9"></path>
            </g>
        </g>
    </g>
</svg>